<svg width="945" height="934" viewBox="0 0 945 934" fill="none" xmlns="http://www.w3.org/2000/svg">
<path fill-rule="evenodd" clip-rule="evenodd" d="M261.024 834.621C267.202 846.746 279.402 854.644 293.028 855.338L439.11 862.783C452.735 863.478 465.716 856.863 473.164 845.432L553.006 722.873C560.453 711.442 561.234 696.929 555.056 684.804L488.815 554.799C482.637 542.673 470.437 534.776 456.811 534.081L310.729 526.636C297.103 525.942 284.122 532.556 276.675 543.987L196.833 666.546C189.386 677.978 188.605 692.49 194.783 704.616L261.024 834.621Z" fill="black" fill-opacity="0.33"/>
<path fill-rule="evenodd" clip-rule="evenodd" d="M286.837 464.568C293.015 476.694 305.215 484.592 318.841 485.286L464.923 492.731C478.549 493.425 491.53 486.811 498.977 475.38L578.819 352.821C586.266 341.389 587.047 326.877 580.869 314.751L514.629 184.747C508.45 172.621 496.25 164.723 482.624 164.029L336.542 156.584C322.917 155.889 309.936 162.504 302.488 173.935L222.646 296.494C215.199 307.926 214.418 322.438 220.596 334.564L286.837 464.568Z" fill="black" fill-opacity="0.33"/>
<path fill-rule="evenodd" clip-rule="evenodd" d="M599.606 662.104C605.784 674.23 617.984 682.128 631.61 682.822L777.692 690.267C791.318 690.961 804.299 684.347 811.746 672.916L891.588 550.357C899.035 538.925 899.817 524.413 893.638 512.288L827.398 382.283C821.219 370.157 809.02 362.259 795.393 361.565L649.312 354.12C635.686 353.426 622.705 360.04 615.257 371.471L535.416 494.03C527.968 505.462 527.187 519.974 533.366 532.1L599.606 662.104Z" fill="black" fill-opacity="0.33"/>
<path fill-rule="evenodd" clip-rule="evenodd" d="M432.523 392.658C432.225 398.345 434.991 403.76 439.781 406.863L491.127 440.125C495.917 443.227 502.001 443.546 507.088 440.962L561.631 413.249C566.718 410.664 570.036 405.568 570.334 399.881L573.529 338.905C573.827 333.218 571.061 327.803 566.271 324.7L514.925 291.438C510.135 288.336 504.051 288.017 498.964 290.602L444.421 318.314C439.334 320.899 436.016 325.995 435.718 331.683L432.523 392.658Z" fill="url(#paint0_linear_0_894)"/>
<defs>
<linearGradient id="paint0_linear_0_894" x1="414.798" y1="400.414" x2="589.079" y2="523.015" gradientUnits="userSpaceOnUse">
<stop stop-color="#FFA000"/>
<stop offset="1" stop-color="#FFECB3"/>
</linearGradient>
</defs>
</svg>
